<mxfile host="app.diagrams.net" modified="2023-10-23T18:26:49.184Z" agent="Mozilla/5.0 (Macintosh; Intel Mac OS X 10_15_7) AppleWebKit/537.36 (KHTML, like Gecko) Chrome/118.0.0.0 Safari/537.36" etag="YQR29wtPU0axvNvrRw5R" version="22.0.6" type="device">
  <diagram name="Page-1" id="KTYx0XG3yM1Mlc4eM26u">
    <mxGraphModel dx="1434" dy="790" grid="1" gridSize="10" guides="1" tooltips="1" connect="1" arrows="1" fold="1" page="1" pageScale="1" pageWidth="850" pageHeight="1100" math="0" shadow="0">
      <root>
        <mxCell id="0" />
        <mxCell id="1" parent="0" />
        <mxCell id="x85flVgyCYNLQr-hCAp4-1" value="" style="whiteSpace=wrap;html=1;aspect=fixed;fillColor=none;" parent="1" vertex="1">
          <mxGeometry x="365" y="385" width="150" height="150" as="geometry" />
        </mxCell>
        <mxCell id="x85flVgyCYNLQr-hCAp4-2" value="" style="whiteSpace=wrap;html=1;aspect=fixed;fillColor=none;" parent="1" vertex="1">
          <mxGeometry x="550" y="385" width="150" height="150" as="geometry" />
        </mxCell>
        <mxCell id="Qo8h4bkMOnJ6qTUel2H2-5" value="" style="whiteSpace=wrap;html=1;aspect=fixed;fillColor=none;" parent="1" vertex="1">
          <mxGeometry x="150" y="285" width="150" height="150" as="geometry" />
        </mxCell>
        <mxCell id="rSRiCKfrQ2Ajn4tDwNLE-21" value="" style="whiteSpace=wrap;html=1;aspect=fixed;fillColor=none;" parent="1" vertex="1">
          <mxGeometry x="150" y="470" width="150" height="150" as="geometry" />
        </mxCell>
        <mxCell id="rSRiCKfrQ2Ajn4tDwNLE-3" value="Recipe app" style="whiteSpace=wrap;html=1;aspect=fixed;" parent="1" vertex="1">
          <mxGeometry x="400" y="420" width="80" height="80" as="geometry" />
        </mxCell>
        <mxCell id="rSRiCKfrQ2Ajn4tDwNLE-4" value="" style="endArrow=classic;startArrow=classic;html=1;rounded=0;exitX=0;exitY=0.5;exitDx=0;exitDy=0;entryX=1;entryY=0.5;entryDx=0;entryDy=0;" parent="1" source="x85flVgyCYNLQr-hCAp4-1" target="Qo8h4bkMOnJ6qTUel2H2-5" edge="1">
          <mxGeometry width="50" height="50" relative="1" as="geometry">
            <mxPoint x="350" y="450" as="sourcePoint" />
            <mxPoint x="280" y="370" as="targetPoint" />
          </mxGeometry>
        </mxCell>
        <mxCell id="rSRiCKfrQ2Ajn4tDwNLE-8" value="" style="endArrow=classic;startArrow=classic;html=1;rounded=0;exitX=0;exitY=0.5;exitDx=0;exitDy=0;entryX=1;entryY=0.5;entryDx=0;entryDy=0;" parent="1" source="x85flVgyCYNLQr-hCAp4-1" target="rSRiCKfrQ2Ajn4tDwNLE-21" edge="1">
          <mxGeometry width="50" height="50" relative="1" as="geometry">
            <mxPoint x="350" y="480" as="sourcePoint" />
            <mxPoint x="280" y="550" as="targetPoint" />
          </mxGeometry>
        </mxCell>
        <mxCell id="rSRiCKfrQ2Ajn4tDwNLE-10" value="PostgreSQL" style="shape=cylinder3;whiteSpace=wrap;html=1;boundedLbl=1;backgroundOutline=1;size=15;" parent="1" vertex="1">
          <mxGeometry x="185" y="500" width="75" height="100" as="geometry" />
        </mxCell>
        <mxCell id="rSRiCKfrQ2Ajn4tDwNLE-14" value="Open Telemetry collector" style="whiteSpace=wrap;html=1;aspect=fixed;" parent="1" vertex="1">
          <mxGeometry x="585" y="420" width="80" height="80" as="geometry" />
        </mxCell>
        <mxCell id="rSRiCKfrQ2Ajn4tDwNLE-15" value="" style="endArrow=classic;html=1;rounded=0;exitX=1;exitY=0.5;exitDx=0;exitDy=0;" parent="1" source="x85flVgyCYNLQr-hCAp4-1" edge="1">
          <mxGeometry width="50" height="50" relative="1" as="geometry">
            <mxPoint x="520" y="460" as="sourcePoint" />
            <mxPoint x="550" y="460" as="targetPoint" />
          </mxGeometry>
        </mxCell>
        <mxCell id="rSRiCKfrQ2Ajn4tDwNLE-16" value="New Relic" style="ellipse;shape=cloud;whiteSpace=wrap;html=1;" parent="1" vertex="1">
          <mxGeometry x="540" y="140" width="150" height="100" as="geometry" />
        </mxCell>
        <mxCell id="rSRiCKfrQ2Ajn4tDwNLE-17" value="" style="endArrow=classic;html=1;rounded=0;exitX=0.5;exitY=0;exitDx=0;exitDy=0;entryX=0.55;entryY=0.95;entryDx=0;entryDy=0;entryPerimeter=0;" parent="1" source="x85flVgyCYNLQr-hCAp4-2" target="rSRiCKfrQ2Ajn4tDwNLE-16" edge="1">
          <mxGeometry width="50" height="50" relative="1" as="geometry">
            <mxPoint x="640" y="350" as="sourcePoint" />
            <mxPoint x="625" y="290" as="targetPoint" />
          </mxGeometry>
        </mxCell>
        <mxCell id="rSRiCKfrQ2Ajn4tDwNLE-20" value="VM 1" style="text;html=1;strokeColor=none;fillColor=none;align=center;verticalAlign=middle;whiteSpace=wrap;rounded=0;" parent="1" vertex="1">
          <mxGeometry x="365" y="385" width="35" height="30" as="geometry" />
        </mxCell>
        <mxCell id="2h9bIhXp_FEdk_xCHPPt-1" value="VM 4" style="text;html=1;strokeColor=none;fillColor=none;align=center;verticalAlign=middle;whiteSpace=wrap;rounded=0;" parent="1" vertex="1">
          <mxGeometry x="153" y="472" width="35" height="30" as="geometry" />
        </mxCell>
        <mxCell id="Qo8h4bkMOnJ6qTUel2H2-6" value="Redis" style="shape=cylinder3;whiteSpace=wrap;html=1;boundedLbl=1;backgroundOutline=1;size=15;" parent="1" vertex="1">
          <mxGeometry x="185" y="315" width="75" height="100" as="geometry" />
        </mxCell>
        <mxCell id="Qo8h4bkMOnJ6qTUel2H2-7" value="VM 3" style="text;html=1;strokeColor=none;fillColor=none;align=center;verticalAlign=middle;whiteSpace=wrap;rounded=0;" parent="1" vertex="1">
          <mxGeometry x="153" y="287" width="35" height="30" as="geometry" />
        </mxCell>
        <mxCell id="x85flVgyCYNLQr-hCAp4-7" value="VM 2" style="text;html=1;strokeColor=none;fillColor=none;align=center;verticalAlign=middle;whiteSpace=wrap;rounded=0;" parent="1" vertex="1">
          <mxGeometry x="550" y="385" width="35" height="30" as="geometry" />
        </mxCell>
      </root>
    </mxGraphModel>
  </diagram>
</mxfile>
